<svg xmlns="http://www.w3.org/2000/svg" viewBox="0 0 113.5 97">
  <g id="Слой_2" data-name="Слой 2">
    <g id="Слой_1-2" data-name="Слой 1">
      <g>
        <path class="cls-1" d="M96,97H17.46A17.48,17.48,0,0,1,0,79.54V45.46A17.48,17.48,0,0,1,17.46,28H96A17.48,17.48,0,0,1,113.5,45.46V79.54A17.48,17.48,0,0,1,96,97ZM17.46,37A8.46,8.46,0,0,0,9,45.46V79.54A8.46,8.46,0,0,0,17.46,88H96a8.46,8.46,0,0,0,8.46-8.46V45.46A8.46,8.46,0,0,0,96,37Z"/>
        <path class="cls-1" d="M18.5,14h76a7,7,0,0,1,7,7v0a2,2,0,0,1-2,2h-86a2,2,0,0,1-2-2v0a7,7,0,0,1,7-7Z"/>
        <path class="cls-1" d="M26.16,0H86.84a7,7,0,0,1,7,7V7a2,2,0,0,1-2,2H21.16a2,2,0,0,1-2-2V7A7,7,0,0,1,26.16,0Z"/>
      </g>
    </g>
  </g>
</svg>
