<svg xmlns="http://www.w3.org/2000/svg" viewBox="0 0 114 101">
  <g id="Слой_2" data-name="Слой 2">
    <g id="Слой_1-2" data-name="Слой 1">
      <path d="M113.16,22.54c-1.9-2.44-12-10-62.55-6.79C49.39,8.77,45,0,34,0H18C0,0,0,18,0,26.6V62.4A26.63,26.63,0,0,0,26.6,89H65.34A26.48,26.48,0,0,0,114,75.17a1,1,0,0,0,0-.17V25A4.06,4.06,0,0,0,113.16,22.54ZM8,26.6C8,12.35,10.34,8,18,8H34c8.66,0,9,10.79,9,12a4,4,0,0,0,4.29,4c41.48-3,55.09,1.42,58.71,3.14V33H8ZM26.6,81A18.62,18.62,0,0,1,8,62.4V41h98V55.55A26.49,26.49,0,0,0,61.81,81ZM69,74.5A18.48,18.48,0,0,1,98,59.31L72.31,85A18.39,18.39,0,0,1,69,74.5ZM87.5,93a18.32,18.32,0,0,1-9.31-2.54l25.27-25.27A18.32,18.32,0,0,1,106,74.5,18.52,18.52,0,0,1,87.5,93Z"/>
    </g>
  </g>
</svg>
