<svg xmlns="http://www.w3.org/2000/svg" viewBox="0 0 116.55 111">
  <g id="Слой_2" data-name="Слой 2">
    <g id="Слой_1-2" data-name="Слой 1">
      <g>
        <path class="cls-1" d="M115.22,23a.64.64,0,0,0,.64-.68A24.24,24.24,0,0,0,91.77,0H24.09A24.24,24.24,0,0,0,0,22.32.64.64,0,0,0,.64,23Z"/>
        <path class="cls-1" d="M115.31,27H1.8A1.25,1.25,0,0,0,.55,28.24v58.6A24.24,24.24,0,0,0,24.72,111H92.39a24.23,24.23,0,0,0,24.16-24.16V28.24A1.24,1.24,0,0,0,115.31,27ZM35.74,82.24A4.77,4.77,0,0,1,31,87H22.69a4.77,4.77,0,0,1-4.76-4.76V76a4.78,4.78,0,0,1,4.76-4.76H31A4.78,4.78,0,0,1,35.74,76Zm0-26.19A4.77,4.77,0,0,1,31,60.81H22.69a4.77,4.77,0,0,1-4.76-4.76v-6.2a4.77,4.77,0,0,1,4.76-4.76H31a4.77,4.77,0,0,1,4.76,4.76ZM66.65,82.24A4.77,4.77,0,0,1,61.89,87h-8.3a4.77,4.77,0,0,1-4.75-4.76V76a4.78,4.78,0,0,1,4.75-4.76h8.3A4.78,4.78,0,0,1,66.65,76Zm0-26.19a4.77,4.77,0,0,1-4.76,4.76h-8.3a4.77,4.77,0,0,1-4.75-4.76v-6.2a4.77,4.77,0,0,1,4.75-4.76h8.3a4.77,4.77,0,0,1,4.76,4.76Zm30.9,0a4.77,4.77,0,0,1-4.75,4.76H84.5a4.78,4.78,0,0,1-4.76-4.76v-6.2a4.78,4.78,0,0,1,4.76-4.76h8.3a4.77,4.77,0,0,1,4.75,4.76Z"/>
      </g>
    </g>
  </g>
</svg>
