<svg xmlns="http://www.w3.org/2000/svg" viewBox="0 0 116 116">
  <g id="Слой_2" data-name="Слой 2">
    <g id="Слой_1-2" data-name="Слой 1">
      <path class="cls-1" d="M91.84,0H24.16A24.23,24.23,0,0,0,0,24.16V91.84A24.23,24.23,0,0,0,24.16,116H91.84A24.23,24.23,0,0,0,116,91.84V24.16A24.23,24.23,0,0,0,91.84,0Zm-2,45.42L56,79.35a6.78,6.78,0,0,1-9.55,0h0a6.79,6.79,0,0,1-.77-.93l-.08-.07L25.4,58.2a6.78,6.78,0,0,1,0-9.55h0a6.78,6.78,0,0,1,9.55,0L51.25,65,80.33,35.88a6.75,6.75,0,0,1,9.55,9.54Z"/>
    </g>
  </g>
</svg>
