<svg xmlns="http://www.w3.org/2000/svg" viewBox="0 0 116 116">
  <g id="Слой_2" data-name="Слой 2">
    <g id="Слой_1-2" data-name="Слой 1">
      <g>
        <path class="cls-1" d="M91.84,9A15.18,15.18,0,0,1,107,24.16V91.84A15.18,15.18,0,0,1,91.84,107H24.16A15.18,15.18,0,0,1,9,91.84V24.16A15.18,15.18,0,0,1,24.16,9H91.84m0-9H24.16A24.23,24.23,0,0,0,0,24.16V91.84A24.23,24.23,0,0,0,24.16,116H91.84A24.23,24.23,0,0,0,116,91.84V24.16A24.23,24.23,0,0,0,91.84,0Z"/>
        <rect class="cls-1" x="23" y="28" width="70" height="8" rx="3.5"/>
        <rect class="cls-1" x="39" y="55" width="54" height="8" rx="3.5"/>
        <rect class="cls-1" x="39" y="82" width="54" height="8" rx="3.5"/>
        <rect class="cls-1" x="23" y="55" width="8" height="8" rx="4"/>
        <rect class="cls-1" x="23" y="82" width="8" height="8" rx="4"/>
      </g>
    </g>
  </g>
</svg>
