<svg xmlns="http://www.w3.org/2000/svg" viewBox="0 0 116 116">
  <g id="Слой_2" data-name="Слой 2">
    <g id="Слой_1-2" data-name="Слой 1">
      <g>
        <path class="cls-1" d="M91.84,9A15.18,15.18,0,0,1,107,24.16V91.84A15.18,15.18,0,0,1,91.84,107H24.16A15.18,15.18,0,0,1,9,91.84V24.16A15.18,15.18,0,0,1,24.16,9H91.84m0-9H24.16A24.23,24.23,0,0,0,0,24.16V91.84A24.23,24.23,0,0,0,24.16,116H91.84A24.23,24.23,0,0,0,116,91.84V24.16A24.23,24.23,0,0,0,91.84,0Z"/>
        <path class="cls-1" d="M89.88,46.42,56,80.35a6.78,6.78,0,0,1-9.55,0h0a6.79,6.79,0,0,1-.77-.93l-.08-.07L25.4,59.2a6.78,6.78,0,0,1,0-9.55h0a6.78,6.78,0,0,1,9.55,0L51.25,66,80.33,36.88a6.75,6.75,0,0,1,9.55,9.54Z"/>
      </g>
    </g>
  </g>
</svg>
