<svg xmlns="http://www.w3.org/2000/svg" viewBox="0 0 67.88 67">
  <g id="Слой_2" data-name="Слой 2">
    <g id="Слой_1-2" data-name="Слой 1">
      <g>
        <path d="M25.46,67H8a8,8,0,0,1-8-8V8A8,8,0,0,1,8,0H25.46a1,1,0,0,1,1,1V6a1,1,0,0,1-1,1H8A1,1,0,0,0,7,8V59a1,1,0,0,0,1,1H25.46a1,1,0,0,1,1,1V66A1,1,0,0,1,25.46,67Z"/>
        <path d="M47,15.11,46,16.2a2.21,2.21,0,0,0,0,3.15L56.78,30.18a.18.18,0,0,1-.13.31H20.73a2.23,2.23,0,0,0-2.23,2.23v1.54a2.23,2.23,0,0,0,2.23,2.23H56.55a.19.19,0,0,1,.13.32L45.84,47.65a2.23,2.23,0,0,0,0,3.15l1.09,1.09a2.23,2.23,0,0,0,3.15,0L67.42,34.56a1.59,1.59,0,0,0,0-2.23L50.2,15.11A2.24,2.24,0,0,0,47,15.11Z"/>
      </g>
    </g>
  </g>
</svg>
