<svg xmlns="http://www.w3.org/2000/svg" viewBox="0 0 116 116">
  <g id="Слой_2" data-name="Слой 2">
    <g id="Слой_1-2" data-name="Слой 1">
      <g>
        <path d="M91.84,9A15.18,15.18,0,0,1,107,24.16V91.84A15.18,15.18,0,0,1,91.84,107H24.16A15.18,15.18,0,0,1,9,91.84V24.16A15.18,15.18,0,0,1,24.16,9H91.84m0-9H24.16A24.23,24.23,0,0,0,0,24.16V91.84A24.23,24.23,0,0,0,24.16,116H91.84A24.23,24.23,0,0,0,116,91.84V24.16A24.23,24.23,0,0,0,91.84,0Z"/>
        <rect fill="currentColor" x="9" y="9" width="98" height="98" rx="15.16"/>
      </g>
    </g>
  </g>
</svg>
