<svg xmlns="http://www.w3.org/2000/svg" viewBox="0 0 60.65 77.66">
  <g id="Слой_2" data-name="Слой 2">
    <g id="Слой_1-2" data-name="Слой 1">
      <g>
        <path class="cls-1" d="M59.48,57a4,4,0,0,0-5.66,0l-7,7V3.83a3.5,3.5,0,0,0-3.5-3.5h-1a3.51,3.51,0,0,0-3.5,3.5V73.49a3.77,3.77,0,0,0,.07,1,3.28,3.28,0,0,0,.47,1.23,4,4,0,0,0,.61.82,4,4,0,0,0,5.66,0L59.48,62.64A4,4,0,0,0,59.48,57Z"/>
        <path class="cls-1" d="M1.17,20.67a4,4,0,0,0,5.65,0l7-7V73.83a3.52,3.52,0,0,0,3.5,3.5h1a3.51,3.51,0,0,0,3.5-3.5V4.16a3.77,3.77,0,0,0-.06-1A3.48,3.48,0,0,0,21.29,2,4,4,0,0,0,15,1.17L1.17,15A4,4,0,0,0,1.17,20.67Z"/>
      </g>
    </g>
  </g>
</svg>
