<svg xmlns="http://www.w3.org/2000/svg" viewBox="0 0 113 88.34">
  <g id="Слой_2" data-name="Слой 2">
    <g id="Слой_1-2" data-name="Слой 1">
      <path class="cls-1" d="M110.16,39.07,88.4,7.32A17,17,0,0,0,74.35,0H38.65a17,17,0,0,0-14,7.32L2.84,39.07A16.13,16.13,0,0,0,0,48.21V71.88A16.7,16.7,0,0,0,16.9,88.34H96.1A16.7,16.7,0,0,0,113,71.88V48.21A16.13,16.13,0,0,0,110.16,39.07ZM32.15,12a7.87,7.87,0,0,1,6.5-3.44h35.7A7.87,7.87,0,0,1,80.85,12L99.27,38.84a.71.71,0,0,1-.63,1.1L74.16,40a4.37,4.37,0,0,0-4.48,4.27h0c0,8.06-7.66,10.24-12.21,10.25h0a14.43,14.43,0,0,1-8.63-2.64,9,9,0,0,1-3.6-7.54h0a4.39,4.39,0,0,0-4.51-4.25l-26.48.08a.71.71,0,0,1-.64-1.1Zm64,67.86H16.9A7.93,7.93,0,0,1,9,71.88V49.44a.73.73,0,0,1,.75-.71l26.34-.08a.74.74,0,0,1,.73.54,17.31,17.31,0,0,0,6.32,9.34,23.55,23.55,0,0,0,14.28,4.53h.08a23.61,23.61,0,0,0,14.33-4.62,17.28,17.28,0,0,0,6.25-9.37.74.74,0,0,1,.72-.55l24.44-.07a.74.74,0,0,1,.76.71V71.88A7.93,7.93,0,0,1,96.1,79.82Z"/>
    </g>
  </g>
</svg>
