<svg xmlns="http://www.w3.org/2000/svg" viewBox="0 0 112.21 113.94">
  <g id="Слой_2" data-name="Слой 2">
    <g id="Слой_1-2" data-name="Слой 1">
      <g>
        <path class="cls-1" d="M111,90.94H1.21A1.19,1.19,0,0,1,0,89.79C-.1,85.71-.19,76,14.15,72.18a1.29,1.29,0,0,0,1-1.22c0-50.29,2.25-71,41-71s41,20.67,41,71a1.29,1.29,0,0,0,1,1.22C112.4,76,112.31,85.71,112.19,89.79A1.19,1.19,0,0,1,111,90.94Z"/>
        <path class="cls-1" d="M43.38,96.94H67.83a4.27,4.27,0,0,1,4.27,4.27v0a12.73,12.73,0,0,1-12.73,12.73H51.83a12.73,12.73,0,0,1-12.73-12.73v0a4.27,4.27,0,0,1,4.27-4.27Z"/>
      </g>
    </g>
  </g>
</svg>
