<svg xmlns="http://www.w3.org/2000/svg" viewBox="0 0 71 76">
  <g id="Слой_2" data-name="Слой 2">
    <g id="Слой_1-2" data-name="Слой 1">
      <g>
        <path fill="currentColor" d="M65.37,8.44h-61V47.65h61L56.54,30.11a4.62,4.62,0,0,1,0-4.13Z"/>
        <path d="M61,28.5,70.58,9.67a3.84,3.84,0,0,0-.18-3.81A4,4,0,0,0,67,4H8A4,4,0,0,0,0,4V72a4,4,0,0,0,8,0V53H67a4,4,0,0,0,3.4-1.86,3.84,3.84,0,0,0,.18-3.81Zm-8,1.75,7.61,14.91H8V11.84H60.53L52.92,26.75A3.86,3.86,0,0,0,52.92,30.25Z"/>
      </g>
    </g>
  </g>
</svg>
