<svg xmlns="http://www.w3.org/2000/svg" viewBox="0 0 113 113">
  <g id="Слой_2" data-name="Слой 2">
    <g id="Слой_1-2" data-name="Слой 1">
      <path class="cls-1" d="M56.5,0A56.5,56.5,0,1,0,113,56.5,56.51,56.51,0,0,0,56.5,0Zm4.88,83.27A4.56,4.56,0,0,1,56.9,87.9H55.07a4.55,4.55,0,0,1-4.47-4.63V81.55a4.56,4.56,0,0,1,4.47-4.64H56.9a4.57,4.57,0,0,1,4.48,4.64ZM74.92,47.33a12.26,12.26,0,0,1-2.09,4.24,36.54,36.54,0,0,1-2.68,3.2Q69,56,66.39,58.23q-4.19,3.72-5,5.41a9.48,9.48,0,0,0-.68,3.07,4.52,4.52,0,0,1-4.44,4.15,4.59,4.59,0,0,1-4.45-5.23,22.74,22.74,0,0,1,.83-3.9,17,17,0,0,1,4.64-6.87c.22-.23.77-.74,1.63-1.52s1.43-1.31,1.71-1.6.76-.79,1.43-1.51a9.57,9.57,0,0,0,1.37-1.78c.25-.46.56-1.05.92-1.77a8.06,8.06,0,0,0,.75-2.16,12,12,0,0,0,.21-2.29,8.29,8.29,0,0,0-8.69-8.65q-8.14,0-9.74,8.53a4.44,4.44,0,0,1-4.29,3.75H42a4.6,4.6,0,0,1-4.36-5.7,20.69,20.69,0,0,1,4.7-9.48q5-5.58,14.46-5.58,8.44,0,13.58,4.71A16.06,16.06,0,0,1,75.5,42.23,20.8,20.8,0,0,1,74.92,47.33Z"/>
    </g>
  </g>
</svg>
