<svg xmlns="http://www.w3.org/2000/svg" viewBox="0 0 26.4 36.54">
  <g id="Слой_2" data-name="Слой 2">
    <g id="Слой_1-2" data-name="Слой 1">
      <g>
        <path d="M0,23.83a2.45,2.45,0,0,1,.76-1.78,2.61,2.61,0,0,1,3.65,0L13,30.46l9-8.74a2.61,2.61,0,0,1,3.65,0,2.47,2.47,0,0,1,0,3.56L14.86,35.8a2.61,2.61,0,0,1-3.65,0L.76,25.61A2.46,2.46,0,0,1,0,23.83Z"/>
        <path d="M0,12.71a2.45,2.45,0,0,0,.76,1.78,2.61,2.61,0,0,0,3.65,0L13,6.08l9,8.74a2.61,2.61,0,0,0,3.65,0,2.47,2.47,0,0,0,0-3.56L14.86.74a2.61,2.61,0,0,0-3.65,0L.76,10.93A2.46,2.46,0,0,0,0,12.71Z"/>
      </g>
    </g>
  </g>
</svg>
