<svg xmlns="http://www.w3.org/2000/svg" viewBox="0 0 71.17 78.85">
  <g id="Слой_2" data-name="Слой 2">
    <g id="Слой_1-2" data-name="Слой 1">
      <path d="M35.59,78.85a10.74,10.74,0,0,1-5.38-1.44L5.38,63.07A10.77,10.77,0,0,1,0,53.76V25.08a10.79,10.79,0,0,1,5.38-9.31L30.21,1.44A10.75,10.75,0,0,1,41,1.44L65.8,15.77a10.8,10.8,0,0,1,5.37,9.31V53.76a10.78,10.78,0,0,1-5.37,9.31L41,77.41A10.73,10.73,0,0,1,35.59,78.85ZM35.59,6a4.76,4.76,0,0,0-2.38.63L8.38,21A4.76,4.76,0,0,0,6,25.08V53.76a4.77,4.77,0,0,0,2.38,4.12L33.21,72.22a4.79,4.79,0,0,0,4.75,0L62.8,57.88a4.79,4.79,0,0,0,2.37-4.12V25.08A4.77,4.77,0,0,0,62.8,21L38,6.63A4.75,4.75,0,0,0,35.59,6Zm-.1,47.42A13.91,13.91,0,1,1,49.4,39.52,13.91,13.91,0,0,1,35.49,53.42Zm0-21.81a7.91,7.91,0,1,0,7.91,7.91A7.91,7.91,0,0,0,35.49,31.61Z"/>
    </g>
  </g>
</svg>
