<svg xmlns="http://www.w3.org/2000/svg" viewBox="0 0 70 62">
  <g id="Слой_2" data-name="Слой 2">
    <g id="Слой_1-2" data-name="Слой 1">
      <rect class="cls-1" width="70" height="8" rx="3.5"/>
      <rect class="cls-1" x="24" y="27" width="46" height="8" rx="3.5"/>
      <path class="cls-1" d="M8.8,30.84,1.18,24.06a3.28,3.28,0,0,1,0-5h0a4.36,4.36,0,0,1,5.66,0l10.94,9.72,0,0a3.83,3.83,0,0,1,1,2.36,3.83,3.83,0,0,1-1,2.36l0,0L6.84,43.26a4.39,4.39,0,0,1-5.66,0h0a3.28,3.28,0,0,1,0-5L8.8,31.46A.4.4,0,0,0,8.8,30.84Z"/>
      <rect class="cls-1" y="54" width="70" height="8" rx="3.5"/>
    </g>
  </g>
</svg>
