<svg xmlns="http://www.w3.org/2000/svg" viewBox="0 0 107.15 107.16">
  <g id="Слой_2" data-name="Слой 2">
    <g id="Слой_1-2" data-name="Слой 1">
      <g>
        <path class="cls-1" d="M96.15,55.37A42.36,42.36,0,0,1,53.72,96.16l-1.75,0a42.44,42.44,0,0,1-27.89-12l3.62.6A5.52,5.52,0,0,0,34,80.2l.08-.5a5.52,5.52,0,0,0-4.53-6.32l-18-3a5.52,5.52,0,0,0-6.32,4.53l-.08.5a1.49,1.49,0,0,0,0,.21A5.37,5.37,0,0,0,5,76.92l.66,19.19a5.43,5.43,0,0,0,10.85-.37L16.38,92a53.48,53.48,0,0,0,90.76-36.21l-5.49-.28,5.49.25A5.49,5.49,0,0,0,101.9,50h-.25a5.49,5.49,0,0,0-5.49,5.25Z"/>
        <path class="cls-1" d="M11,51.79A42.37,42.37,0,0,1,53.43,11c.58,0,1.16,0,1.75,0A42.39,42.39,0,0,1,83.07,23l-3.62-.59A5.5,5.5,0,0,0,73.13,27l-.08.49a5.51,5.51,0,0,0,4.53,6.32l18,3a5.52,5.52,0,0,0,6.32-4.54l.08-.49a1.8,1.8,0,0,0,0-.22,5.32,5.32,0,0,0,.12-1.27l-.66-19.18a5.43,5.43,0,1,0-10.85.37l.13,3.75A53.48,53.48,0,0,0,0,51.39l5.49.27L0,51.41a5.5,5.5,0,0,0,5.24,5.75H5.5A5.49,5.49,0,0,0,11,51.91Z"/>
      </g>
    </g>
  </g>
</svg>
