<svg xmlns="http://www.w3.org/2000/svg" viewBox="0 0 112 101">
  <defs>
    <style>
      .cls-1 {
        font-size: 54.88px;
        font-family: HelveticaNeueCyr-Medium, HelveticaNeueCyr;
        font-weight: 500;
      }

      .cls-1, .cls-2 {
        fill: #fff;
      }
    </style>
  </defs>
  <g id="Слой_2" data-name="Слой 2">
    <g id="Слой_1-2" data-name="Слой 1">
      <g>
        <text class="cls-1" transform="translate(25.97 80.92)">28</text>
        <path class="cls-2" d="M95.34,0H16.66A16.67,16.67,0,0,0,0,16.66V84.34A16.67,16.67,0,0,0,16.66,101H95.34A16.67,16.67,0,0,0,112,84.34V16.66A16.67,16.67,0,0,0,95.34,0ZM16.66,9H95.34A7.67,7.67,0,0,1,103,16.66v5.42H9V16.66A7.67,7.67,0,0,1,16.66,9ZM95.34,92H16.66A7.67,7.67,0,0,1,9,84.34V31.08h94V84.34A7.67,7.67,0,0,1,95.34,92Z"/>
      </g>
    </g>
  </g>
</svg>
