<svg xmlns="http://www.w3.org/2000/svg" viewBox="0 0 127 112.95">
  <g id="Слой_2" data-name="Слой 2">
    <g id="Слой_1-2" data-name="Слой 1">
      <g>
        <path class="cls-1" d="M123.94,16H92.68V11.18A11.19,11.19,0,0,0,81.5,0h-36A11.19,11.19,0,0,0,34.32,11.18V16H3.06A3.06,3.06,0,0,0,0,19v3.87A3.06,3.06,0,0,0,3.06,26H11.5V88.79A24.23,24.23,0,0,0,35.66,113H91.34A24.23,24.23,0,0,0,115.5,88.79V26h8.44A3.06,3.06,0,0,0,127,22.89V19A3.06,3.06,0,0,0,123.94,16ZM43.32,11.18A2.19,2.19,0,0,1,45.5,9h36a2.19,2.19,0,0,1,2.18,2.18V16H43.32ZM106.5,88.79A15.18,15.18,0,0,1,91.34,104H35.66A15.18,15.18,0,0,1,20.5,88.79V26h86Z"/>
        <g>
          <line class="cls-2" x1="77.5" y1="48.45" x2="77.5" y2="81.45"/>
          <line class="cls-2" x1="49.5" y1="48.45" x2="49.5" y2="81.45"/>
        </g>
      </g>
    </g>
  </g>
</svg>
