<svg xmlns="http://www.w3.org/2000/svg" viewBox="0 0 112 101">
  <defs>
    <style>
      .cls-1 {
        fill: #fff;
      }
    </style>
  </defs>
  <g id="Слой_2" data-name="Слой 2">
    <g id="Слой_1-2" data-name="Слой 1">
      <g>
        <g>
          <path class="cls-1" d="M44.55,41.77V80.92H38.09V49.44l-9.57,3.24V47.35l15.25-5.58Z"/>
          <path class="cls-1" d="M64.89,62.78l-5.14-1.26,2.11-19.61h21v5.46H67.22l-1.07,9.57a13.14,13.14,0,0,1,2.52-1.06,11.83,11.83,0,0,1,3.67-.52,12.92,12.92,0,0,1,5,.9A10.06,10.06,0,0,1,81,58.86,11.53,11.53,0,0,1,83.33,63a17.51,17.51,0,0,1,.8,5.46,15.73,15.73,0,0,1-.79,5.06A12.15,12.15,0,0,1,81,77.66a10.78,10.78,0,0,1-4,2.8,14.62,14.62,0,0,1-5.67,1,15.45,15.45,0,0,1-4.67-.71,12.24,12.24,0,0,1-4-2.12,10.49,10.49,0,0,1-2.84-3.48,11.63,11.63,0,0,1-1.23-4.78h6.32A8,8,0,0,0,66,73.6a5.44,5.44,0,0,0,2.18,2,7,7,0,0,0,3.17.7,6.4,6.4,0,0,0,2.81-.58,5.25,5.25,0,0,0,2-1.66,7.63,7.63,0,0,0,1.18-2.56,12.75,12.75,0,0,0,.39-3.27,10.73,10.73,0,0,0-.44-3.14,7.18,7.18,0,0,0-1.32-2.46A5.8,5.8,0,0,0,73.71,61a8.89,8.89,0,0,0-6.55.09A11,11,0,0,0,64.89,62.78Z"/>
        </g>
        <path class="cls-1" d="M95.34,0H16.66A16.67,16.67,0,0,0,0,16.66V84.34A16.67,16.67,0,0,0,16.66,101H95.34A16.67,16.67,0,0,0,112,84.34V16.66A16.67,16.67,0,0,0,95.34,0ZM16.66,9H95.34A7.67,7.67,0,0,1,103,16.66v5.42H9V16.66A7.67,7.67,0,0,1,16.66,9ZM95.34,92H16.66A7.67,7.67,0,0,1,9,84.34V31.08h94V84.34A7.67,7.67,0,0,1,95.34,92Z"/>
      </g>
    </g>
  </g>
</svg>
