<svg xmlns="http://www.w3.org/2000/svg" viewBox="0 0 112 101">
  <g id="Слой_2" data-name="Слой 2">
    <g id="Слой_1-2" data-name="Слой 1">
      <g>
        <g>
          <path d="M44.55,41.77V80.92H38.09V49.44l-9.57,3.24V47.35l15.25-5.58Z"/>
          <path d="M83.54,58.15v6.37a30,30,0,0,1-.89,7.82,13.9,13.9,0,0,1-2.59,5.24,10.09,10.09,0,0,1-4,2.94,13.93,13.93,0,0,1-5.24.94,15,15,0,0,1-4.28-.59A10.48,10.48,0,0,1,63,79a10.86,10.86,0,0,1-2.69-3.25A17.67,17.67,0,0,1,58.55,71a30.94,30.94,0,0,1-.6-6.46V58.15a28.52,28.52,0,0,1,.91-7.79,13.87,13.87,0,0,1,2.6-5.17,10,10,0,0,1,4-2.91,14.34,14.34,0,0,1,5.24-.91A15,15,0,0,1,75,42a10.22,10.22,0,0,1,3.54,1.8A10.65,10.65,0,0,1,81.25,47,16.56,16.56,0,0,1,83,51.7,30.82,30.82,0,0,1,83.54,58.15Zm-6.46,7.28V57.18a27.86,27.86,0,0,0-.26-4.11A13.28,13.28,0,0,0,76,50a6.62,6.62,0,0,0-1.3-2A4.83,4.83,0,0,0,73,46.85a6.52,6.52,0,0,0-2.23-.36,6.1,6.1,0,0,0-2.68.57,5,5,0,0,0-2,1.84,9.72,9.72,0,0,0-1.22,3.31,25.26,25.26,0,0,0-.41,5v8.25a28.39,28.39,0,0,0,.26,4.16,12.75,12.75,0,0,0,.81,3.07,6.9,6.9,0,0,0,1.3,2.09,4.66,4.66,0,0,0,1.77,1.19,6.25,6.25,0,0,0,2.21.38,6,6,0,0,0,2.7-.59,5.05,5.05,0,0,0,2-1.89,10.3,10.3,0,0,0,1.2-3.39A26.92,26.92,0,0,0,77.08,65.43Z"/>
        </g>
        <path d="M95.34,0H16.66A16.67,16.67,0,0,0,0,16.66V84.34A16.67,16.67,0,0,0,16.66,101H95.34A16.67,16.67,0,0,0,112,84.34V16.66A16.67,16.67,0,0,0,95.34,0ZM16.66,9H95.34A7.67,7.67,0,0,1,103,16.66v5.42H9V16.66A7.67,7.67,0,0,1,16.66,9ZM95.34,92H16.66A7.67,7.67,0,0,1,9,84.34V31.08h94V84.34A7.67,7.67,0,0,1,95.34,92Z"/>
      </g>
    </g>
  </g>
</svg>
