<svg xmlns="http://www.w3.org/2000/svg" viewBox="0 0 112 101">
  <defs>
    <style>
      .cls-1 {
        fill: #fff;
      }
    </style>
  </defs>
  <g id="Слой_2" data-name="Слой 2">
    <g id="Слой_1-2" data-name="Слой 1">
      <g>
        <path class="cls-1" d="M63.43,41.66h.8v5.28h-.46a15,15,0,0,0-6,1.08A10.94,10.94,0,0,0,53.7,51a12.39,12.39,0,0,0-2.4,4.39,17.47,17.47,0,0,0-.79,5.32V66.8A15,15,0,0,0,51,70.92a8.83,8.83,0,0,0,1.43,3,6.37,6.37,0,0,0,2.13,1.81,5.66,5.66,0,0,0,2.6.62,5.72,5.72,0,0,0,2.63-.61,6.08,6.08,0,0,0,2-1.67,7.8,7.8,0,0,0,1.26-2.55,11.64,11.64,0,0,0,.43-3.21,11.33,11.33,0,0,0-.42-3.13,8.15,8.15,0,0,0-1.22-2.57,5.73,5.73,0,0,0-2-1.74,5.81,5.81,0,0,0-2.75-.63,6.82,6.82,0,0,0-3.5.91,7.54,7.54,0,0,0-2.52,2.37,6.19,6.19,0,0,0-1,3.1l-2.46-.81a13.46,13.46,0,0,1,1.11-4.47,10.71,10.71,0,0,1,2.37-3.38,10.07,10.07,0,0,1,3.42-2.13,12,12,0,0,1,4.27-.74,10.6,10.6,0,0,1,4.93,1.08A9.88,9.88,0,0,1,67.19,59a13.08,13.08,0,0,1,2.07,4.18,17.68,17.68,0,0,1,.68,4.9,15.59,15.59,0,0,1-.86,5.23,12.47,12.47,0,0,1-2.5,4.25,11.39,11.39,0,0,1-4,2.84,13.18,13.18,0,0,1-5.32,1,12.37,12.37,0,0,1-5.58-1.21,12.12,12.12,0,0,1-4.16-3.32,14.9,14.9,0,0,1-2.58-4.88,19,19,0,0,1-.89-5.84V63.53a30.6,30.6,0,0,1,1.13-8.4,20.32,20.32,0,0,1,3.47-7,16.28,16.28,0,0,1,6-4.76A20.48,20.48,0,0,1,63.43,41.66Z"/>
        <path class="cls-1" d="M95.34,0H16.66A16.67,16.67,0,0,0,0,16.66V84.34A16.67,16.67,0,0,0,16.66,101H95.34A16.67,16.67,0,0,0,112,84.34V16.66A16.67,16.67,0,0,0,95.34,0ZM16.66,9H95.34A7.67,7.67,0,0,1,103,16.66v5.42H9V16.66A7.67,7.67,0,0,1,16.66,9ZM95.34,92H16.66A7.67,7.67,0,0,1,9,84.34V31.08h94V84.34A7.67,7.67,0,0,1,95.34,92Z"/>
      </g>
    </g>
  </g>
</svg>
