<svg xmlns="http://www.w3.org/2000/svg" viewBox="0 0 112 101">
  <defs>
    <style>
      .cls-1 {
        fill: #fff;
      }
    </style>
  </defs>
  <g id="Слой_2" data-name="Слой 2">
    <g id="Слой_1-2" data-name="Слой 1">
      <g>
        <g>
          <path class="cls-1" d="M44.55,41.77V80.92H38.09V49.44l-9.57,3.24V47.35l15.25-5.58Z"/>
          <path class="cls-1" d="M84.27,75.78v5.14H58.11V76.5l12.7-13.85a44.93,44.93,0,0,0,3.3-4.08,13.51,13.51,0,0,0,1.7-3.09,8,8,0,0,0,.5-2.69,7.31,7.31,0,0,0-.69-3.26,5.22,5.22,0,0,0-2-2.22,5.89,5.89,0,0,0-3.19-.82,6.65,6.65,0,0,0-3.65.94A5.83,5.83,0,0,0,64.57,50a9,9,0,0,0-.75,3.77H57.36a12.66,12.66,0,0,1,1.56-6.23A11.41,11.41,0,0,1,63.42,43a14.2,14.2,0,0,1,7.1-1.67,15.37,15.37,0,0,1,6.65,1.31,9.46,9.46,0,0,1,4.16,3.73,10.93,10.93,0,0,1,1.44,5.71,11.56,11.56,0,0,1-.59,3.61,17.25,17.25,0,0,1-1.68,3.58,30.46,30.46,0,0,1-2.56,3.57c-1,1.18-2.06,2.39-3.24,3.6l-8.44,9.3Z"/>
        </g>
        <path class="cls-1" d="M95.34,0H16.66A16.67,16.67,0,0,0,0,16.66V84.34A16.67,16.67,0,0,0,16.66,101H95.34A16.67,16.67,0,0,0,112,84.34V16.66A16.67,16.67,0,0,0,95.34,0ZM16.66,9H95.34A7.67,7.67,0,0,1,103,16.66v5.42H9V16.66A7.67,7.67,0,0,1,16.66,9ZM95.34,92H16.66A7.67,7.67,0,0,1,9,84.34V31.08h94V84.34A7.67,7.67,0,0,1,95.34,92Z"/>
      </g>
    </g>
  </g>
</svg>
