<svg xmlns="http://www.w3.org/2000/svg" viewBox="0 0 112 101">
  <defs>
    <style>
      .cls-1 {
        fill: #fff;
      }
    </style>
  </defs>
  <g id="Слой_2" data-name="Слой 2">
    <g id="Слой_1-2" data-name="Слой 1">
      <g>
        <g>
          <path class="cls-1" d="M36.5,63.53V60h4.85a18.65,18.65,0,0,1,5.86.8A10.67,10.67,0,0,1,51.16,63a8.79,8.79,0,0,1,2.24,3.2A10.36,10.36,0,0,1,54.11,70a11.56,11.56,0,0,1-1,4.86,10.13,10.13,0,0,1-2.77,3.61,12.42,12.42,0,0,1-4.2,2.22,17.35,17.35,0,0,1-5.21.75,16.34,16.34,0,0,1-4.82-.7A12.83,12.83,0,0,1,32,78.69a9.78,9.78,0,0,1-2.88-3.46,10.39,10.39,0,0,1-1.06-4.81h6.46a5.71,5.71,0,0,0,.82,3.07,5.6,5.6,0,0,0,2.3,2.08,7.49,7.49,0,0,0,3.42.75,8,8,0,0,0,3.51-.73,5,5,0,0,0,2.26-2.14,8,8,0,0,0-.09-7.13,5.22,5.22,0,0,0-2.52-2.1,9.89,9.89,0,0,0-3.86-.69Zm0-5h3.86a8,8,0,0,0,3.74-.77,5.11,5.11,0,0,0,2.21-2.15A6.6,6.6,0,0,0,47,52.44a7.24,7.24,0,0,0-.65-3.18,4.64,4.64,0,0,0-2-2,7.78,7.78,0,0,0-6.45,0,5.4,5.4,0,0,0-2.19,1.93,5.31,5.31,0,0,0-.8,3H28.46a9.62,9.62,0,0,1,1.64-5.52,11.13,11.13,0,0,1,4.46-3.79,14.28,14.28,0,0,1,6.36-1.38,16.31,16.31,0,0,1,6.61,1.25,9.8,9.8,0,0,1,4.41,3.71,11.12,11.12,0,0,1,1.58,6.11,8.07,8.07,0,0,1-.78,3.37,9.63,9.63,0,0,1-2.3,3.13,11.86,11.86,0,0,1-3.81,2.27,14.76,14.76,0,0,1-5.28.87H36.5Z"/>
          <path class="cls-1" d="M85.54,58.15v6.37a30,30,0,0,1-.89,7.82,13.9,13.9,0,0,1-2.59,5.24,10.09,10.09,0,0,1-4,2.94,13.93,13.93,0,0,1-5.24.94,15,15,0,0,1-4.28-.59A10.48,10.48,0,0,1,65,79a10.86,10.86,0,0,1-2.69-3.25A17.67,17.67,0,0,1,60.55,71a30.94,30.94,0,0,1-.6-6.46V58.15a28.52,28.52,0,0,1,.91-7.79,13.87,13.87,0,0,1,2.6-5.17,10,10,0,0,1,4-2.91,14.34,14.34,0,0,1,5.24-.91A15,15,0,0,1,77,42a10.22,10.22,0,0,1,3.54,1.8A10.65,10.65,0,0,1,83.25,47,16.56,16.56,0,0,1,85,51.7,30.82,30.82,0,0,1,85.54,58.15Zm-6.46,7.28V57.18a27.86,27.86,0,0,0-.26-4.11A13.28,13.28,0,0,0,78,50a6.62,6.62,0,0,0-1.3-2A4.83,4.83,0,0,0,75,46.85a6.52,6.52,0,0,0-2.23-.36,6.1,6.1,0,0,0-2.68.57,5,5,0,0,0-2,1.84,9.72,9.72,0,0,0-1.22,3.31,25.26,25.26,0,0,0-.41,5v8.25a28.39,28.39,0,0,0,.26,4.16,12.75,12.75,0,0,0,.81,3.07,6.9,6.9,0,0,0,1.3,2.09,4.66,4.66,0,0,0,1.77,1.19,6.25,6.25,0,0,0,2.21.38,6,6,0,0,0,2.7-.59,5.05,5.05,0,0,0,2-1.89,10.3,10.3,0,0,0,1.2-3.39A26.92,26.92,0,0,0,79.08,65.43Z"/>
        </g>
        <path class="cls-1" d="M95.34,0H16.66A16.67,16.67,0,0,0,0,16.66V84.34A16.67,16.67,0,0,0,16.66,101H95.34A16.67,16.67,0,0,0,112,84.34V16.66A16.67,16.67,0,0,0,95.34,0ZM16.66,9H95.34A7.67,7.67,0,0,1,103,16.66v5.42H9V16.66A7.67,7.67,0,0,1,16.66,9ZM95.34,92H16.66A7.67,7.67,0,0,1,9,84.34V31.08h94V84.34A7.67,7.67,0,0,1,95.34,92Z"/>
      </g>
    </g>
  </g>
</svg>
