<svg xmlns="http://www.w3.org/2000/svg" viewBox="0 0 112 101">
  <defs>
    <style>
      .cls-1 {
        fill: #fff;
      }
    </style>
  </defs>
  <g id="Слой_2" data-name="Слой 2">
    <g id="Слой_1-2" data-name="Слой 1">
      <g>
        <g>
          <path class="cls-1" d="M45.55,41.77V80.92H39.09V49.44l-9.57,3.24V47.35l15.25-5.58Z"/>
          <path class="cls-1" d="M76.74,41.77V80.92H70.29V49.44l-9.57,3.24V47.35L76,41.77Z"/>
        </g>
        <path class="cls-1" d="M95.34,0H16.66A16.67,16.67,0,0,0,0,16.66V84.34A16.67,16.67,0,0,0,16.66,101H95.34A16.67,16.67,0,0,0,112,84.34V16.66A16.67,16.67,0,0,0,95.34,0ZM16.66,9H95.34A7.67,7.67,0,0,1,103,16.66v5.42H9V16.66A7.67,7.67,0,0,1,16.66,9ZM95.34,92H16.66A7.67,7.67,0,0,1,9,84.34V31.08h94V84.34A7.67,7.67,0,0,1,95.34,92Z"/>
      </g>
    </g>
  </g>
</svg>
