<svg xmlns="http://www.w3.org/2000/svg" viewBox="0 0 112 101">
  <defs>
    <style>
      .cls-1 {
        fill: #fff;
      }
    </style>
  </defs>
  <g id="Слой_2" data-name="Слой 2">
    <g id="Слой_1-2" data-name="Слой 1">
      <g>
        <g>
          <path class="cls-1" d="M44.55,41.77V80.92H38.09V49.44l-9.57,3.24V47.35l15.25-5.58Z"/>
          <path class="cls-1" d="M65.69,63.53V60h4.86a18.63,18.63,0,0,1,5.85.8A10.51,10.51,0,0,1,80.35,63a8.67,8.67,0,0,1,2.24,3.2A10.36,10.36,0,0,1,83.3,70a11.4,11.4,0,0,1-1,4.86,10,10,0,0,1-2.77,3.61,12.46,12.46,0,0,1-4.19,2.22,17.42,17.42,0,0,1-5.22.75,16.38,16.38,0,0,1-4.82-.7,12.93,12.93,0,0,1-4.13-2.07,10,10,0,0,1-2.88-3.46,10.52,10.52,0,0,1-1.06-4.81h6.46a5.71,5.71,0,0,0,.82,3.07,5.6,5.6,0,0,0,2.3,2.08,7.52,7.52,0,0,0,3.42.75,7.91,7.91,0,0,0,3.51-.73A5.11,5.11,0,0,0,76,73.45,7,7,0,0,0,76.82,70a6.92,6.92,0,0,0-.89-3.7,5.22,5.22,0,0,0-2.52-2.1,9.86,9.86,0,0,0-3.86-.69Zm0-5h3.86a8,8,0,0,0,3.74-.77,5.11,5.11,0,0,0,2.21-2.15,6.49,6.49,0,0,0,.73-3.13,7.11,7.11,0,0,0-.66-3.18,4.67,4.67,0,0,0-2-2,7,7,0,0,0-3.37-.72,6.94,6.94,0,0,0-3.09.68,5.47,5.47,0,0,0-2.19,1.93,5.39,5.39,0,0,0-.8,3H57.66a9.61,9.61,0,0,1,1.63-5.52,11.2,11.2,0,0,1,4.46-3.79,14.35,14.35,0,0,1,6.37-1.38,16.22,16.22,0,0,1,6.6,1.25,9.69,9.69,0,0,1,4.41,3.71,11,11,0,0,1,1.58,6.11,8.21,8.21,0,0,1-.77,3.37,9.66,9.66,0,0,1-2.31,3.13,11.92,11.92,0,0,1-3.8,2.27,14.76,14.76,0,0,1-5.28.87H65.69Z"/>
        </g>
        <path class="cls-1" d="M95.34,0H16.66A16.67,16.67,0,0,0,0,16.66V84.34A16.67,16.67,0,0,0,16.66,101H95.34A16.67,16.67,0,0,0,112,84.34V16.66A16.67,16.67,0,0,0,95.34,0ZM16.66,9H95.34A7.67,7.67,0,0,1,103,16.66v5.42H9V16.66A7.67,7.67,0,0,1,16.66,9ZM95.34,92H16.66A7.67,7.67,0,0,1,9,84.34V31.08h94V84.34A7.67,7.67,0,0,1,95.34,92Z"/>
      </g>
    </g>
  </g>
</svg>
