<svg xmlns="http://www.w3.org/2000/svg" viewBox="0 0 112 101">
  <g id="Слой_2" data-name="Слой 2">
    <g id="Слой_1-2" data-name="Слой 1">
      <g>
        <g>
          <path d="M54.07,75.78v5.14H27.92V76.5l12.7-13.85a48.68,48.68,0,0,0,3.3-4.08,13.51,13.51,0,0,0,1.7-3.09,8,8,0,0,0,.49-2.69,7.31,7.31,0,0,0-.68-3.26,5.24,5.24,0,0,0-2-2.22,5.84,5.84,0,0,0-3.19-.82,6.61,6.61,0,0,0-3.64.94A5.83,5.83,0,0,0,34.38,50a9,9,0,0,0-.75,3.77H27.17a12.66,12.66,0,0,1,1.55-6.23A11.54,11.54,0,0,1,33.22,43a14.27,14.27,0,0,1,7.11-1.67A15.32,15.32,0,0,1,47,42.68a9.54,9.54,0,0,1,4.17,3.73,11,11,0,0,1,1.43,5.71A11.28,11.28,0,0,1,52,55.73a17.2,17.2,0,0,1-1.67,3.58,31.68,31.68,0,0,1-2.56,3.57c-1,1.18-2.07,2.39-3.24,3.6l-8.45,9.3Z"/>
          <path d="M64.31,75.83h.54a16.73,16.73,0,0,0,6.17-1,9.66,9.66,0,0,0,4-2.72A10.53,10.53,0,0,0,77.09,68a19.27,19.27,0,0,0,.65-5.11V56.19a15.88,15.88,0,0,0-.5-4.19,9,9,0,0,0-1.39-3,6.07,6.07,0,0,0-2.07-1.84,5.56,5.56,0,0,0-5.14,0,5.91,5.91,0,0,0-2,1.8,8.35,8.35,0,0,0-1.2,2.65,12.53,12.53,0,0,0,0,6.32,8.57,8.57,0,0,0,1.16,2.64,5.81,5.81,0,0,0,2,1.83,5.58,5.58,0,0,0,2.76.67,6.62,6.62,0,0,0,2.76-.58,7,7,0,0,0,2.2-1.57,7.6,7.6,0,0,0,1.47-2.22,6.82,6.82,0,0,0,.59-2.52l2.47.75A10,10,0,0,1,80,61a12.66,12.66,0,0,1-2.33,3.59,11.47,11.47,0,0,1-3.45,2.58,9.53,9.53,0,0,1-4.28,1A10.86,10.86,0,0,1,65,67a10.05,10.05,0,0,1-3.53-2.88A12.76,12.76,0,0,1,59.35,60a17.59,17.59,0,0,1-.69-5,16,16,0,0,1,.85-5.28A13.23,13.23,0,0,1,62,45.38a11.22,11.22,0,0,1,4-3,12.76,12.76,0,0,1,5.32-1.06,12,12,0,0,1,5.55,1.23,11.67,11.67,0,0,1,4,3.41,15.45,15.45,0,0,1,2.47,5,22.28,22.28,0,0,1,.83,6.17v2.28a35.32,35.32,0,0,1-.62,6.66,22.44,22.44,0,0,1-2,5.92,16.92,16.92,0,0,1-3.62,4.77A15.7,15.7,0,0,1,72.47,80a22.75,22.75,0,0,1-7.57,1.14h-.59Z"/>
        </g>
        <path d="M95.34,0H16.66A16.67,16.67,0,0,0,0,16.66V84.34A16.67,16.67,0,0,0,16.66,101H95.34A16.67,16.67,0,0,0,112,84.34V16.66A16.67,16.67,0,0,0,95.34,0ZM16.66,9H95.34A7.67,7.67,0,0,1,103,16.66v5.42H9V16.66A7.67,7.67,0,0,1,16.66,9ZM95.34,92H16.66A7.67,7.67,0,0,1,9,84.34V31.08h94V84.34A7.67,7.67,0,0,1,95.34,92Z"/>
      </g>
    </g>
  </g>
</svg>
