<svg xmlns="http://www.w3.org/2000/svg" viewBox="0 0 112 101">
  <g id="Слой_2" data-name="Слой 2">
    <g id="Слой_1-2" data-name="Слой 1">
      <g>
        <g>
          <path d="M44.55,41.77V80.92H38.09V49.44l-9.57,3.24V47.35l15.25-5.58Z"/>
          <path d="M83.62,70.29a10.7,10.7,0,0,1-1.68,6.13,10.56,10.56,0,0,1-4.6,3.77,17.58,17.58,0,0,1-13.12,0,10.53,10.53,0,0,1-4.61-3.77,10.71,10.71,0,0,1-1.69-6.13,10.19,10.19,0,0,1,.94-4.39,10.08,10.08,0,0,1,2.67-3.4,12.38,12.38,0,0,1,4.07-2.21,16.18,16.18,0,0,1,5.13-.78,15.42,15.42,0,0,1,6.62,1.37A11.26,11.26,0,0,1,82,64.66,9.66,9.66,0,0,1,83.62,70.29Zm-.88-18.12a9,9,0,0,1-1.54,5.2A10.54,10.54,0,0,1,77,61a14.14,14.14,0,0,1-6.16,1.3A14.34,14.34,0,0,1,64.58,61a10.51,10.51,0,0,1-4.26-3.58,9,9,0,0,1-1.54-5.2,10.64,10.64,0,0,1,1.54-5.88,9.87,9.87,0,0,1,4.25-3.66,15.83,15.83,0,0,1,12.38,0,9.93,9.93,0,0,1,4.25,3.66A10.64,10.64,0,0,1,82.74,52.17ZM77.14,70a7,7,0,0,0-.81-3.43,5.53,5.53,0,0,0-2.25-2.27,7.33,7.33,0,0,0-6.7,0,5.62,5.62,0,0,0-2.21,2.27A7.26,7.26,0,0,0,64.38,70a7,7,0,0,0,.78,3.42,5.21,5.21,0,0,0,2.22,2.19,7.33,7.33,0,0,0,3.41.75,7.1,7.1,0,0,0,3.37-.75,5.22,5.22,0,0,0,2.2-2.19A7,7,0,0,0,77.14,70Zm-.86-17.58a6.63,6.63,0,0,0-.68-3.06,5.15,5.15,0,0,0-1.92-2.08,5.49,5.49,0,0,0-2.92-.75,5.67,5.67,0,0,0-2.92.72,4.81,4.81,0,0,0-1.9,2,6.76,6.76,0,0,0-.67,3.13,6.84,6.84,0,0,0,.67,3.13,5,5,0,0,0,1.91,2.07,5.59,5.59,0,0,0,2.94.75,5.52,5.52,0,0,0,2.92-.75,5.07,5.07,0,0,0,1.9-2.07A6.84,6.84,0,0,0,76.28,52.38Z"/>
        </g>
        <path d="M95.34,0H16.66A16.67,16.67,0,0,0,0,16.66V84.34A16.67,16.67,0,0,0,16.66,101H95.34A16.67,16.67,0,0,0,112,84.34V16.66A16.67,16.67,0,0,0,95.34,0ZM16.66,9H95.34A7.67,7.67,0,0,1,103,16.66v5.42H9V16.66A7.67,7.67,0,0,1,16.66,9ZM95.34,92H16.66A7.67,7.67,0,0,1,9,84.34V31.08h94V84.34A7.67,7.67,0,0,1,95.34,92Z"/>
      </g>
    </g>
  </g>
</svg>
