<svg xmlns="http://www.w3.org/2000/svg" viewBox="0 0 112 101">
  <defs>
    <style>
      .cls-1 {
        fill: #fff;
      }
    </style>
  </defs>
  <g id="Слой_2" data-name="Слой 2">
    <g id="Слой_1-2" data-name="Слой 1">
      <g>
        <path class="cls-1" d="M49.12,75.83h.53a16.75,16.75,0,0,0,6.18-1,9.62,9.62,0,0,0,4-2.72A10.54,10.54,0,0,0,61.9,68a19.28,19.28,0,0,0,.64-5.11V56.19A15.91,15.91,0,0,0,62.05,52a9,9,0,0,0-1.4-3,6,6,0,0,0-2.06-1.84,5.58,5.58,0,0,0-5.15,0A5.88,5.88,0,0,0,51.49,49a8.59,8.59,0,0,0-1.21,2.65,12.06,12.06,0,0,0-.41,3.23,12.57,12.57,0,0,0,.38,3.09,8.35,8.35,0,0,0,1.17,2.64,5.81,5.81,0,0,0,2,1.83,5.53,5.53,0,0,0,2.76.67,6.62,6.62,0,0,0,2.76-.58,7,7,0,0,0,2.2-1.57,7.8,7.8,0,0,0,1.47-2.22,7,7,0,0,0,.59-2.52l2.46.75a10.16,10.16,0,0,1-.84,4,12.66,12.66,0,0,1-2.33,3.59A11.52,11.52,0,0,1,59,67.12a9.49,9.49,0,0,1-4.27,1A10.86,10.86,0,0,1,49.8,67a10.18,10.18,0,0,1-3.54-2.88A12.55,12.55,0,0,1,44.16,60a17.24,17.24,0,0,1-.7-5,16,16,0,0,1,.86-5.28,13.2,13.2,0,0,1,2.49-4.35,11.35,11.35,0,0,1,4-3,12.73,12.73,0,0,1,5.32-1.06,12,12,0,0,1,5.55,1.23,11.67,11.67,0,0,1,4,3.41,15.23,15.23,0,0,1,2.46,5A21.91,21.91,0,0,1,69,57.21v2.28a35.33,35.33,0,0,1-.61,6.66,22.45,22.45,0,0,1-2,5.92,16.73,16.73,0,0,1-3.62,4.77A15.65,15.65,0,0,1,57.28,80a22.79,22.79,0,0,1-7.57,1.14h-.59Z"/>
        <path class="cls-1" d="M95.34,0H16.66A16.67,16.67,0,0,0,0,16.66V84.34A16.67,16.67,0,0,0,16.66,101H95.34A16.67,16.67,0,0,0,112,84.34V16.66A16.67,16.67,0,0,0,95.34,0ZM16.66,9H95.34A7.67,7.67,0,0,1,103,16.66v5.42H9V16.66A7.67,7.67,0,0,1,16.66,9ZM95.34,92H16.66A7.67,7.67,0,0,1,9,84.34V31.08h94V84.34A7.67,7.67,0,0,1,95.34,92Z"/>
      </g>
    </g>
  </g>
</svg>
