<svg xmlns="http://www.w3.org/2000/svg" viewBox="0 0 112 101">
  <g id="Слой_2" data-name="Слой 2">
    <g id="Слой_1-2" data-name="Слой 1">
      <g>
        <g>
          <path d="M54.07,75.78v5.14H27.92V76.5l12.7-13.85a48.68,48.68,0,0,0,3.3-4.08,13.51,13.51,0,0,0,1.7-3.09,8,8,0,0,0,.49-2.69,7.31,7.31,0,0,0-.68-3.26,5.24,5.24,0,0,0-2-2.22,5.84,5.84,0,0,0-3.19-.82,6.61,6.61,0,0,0-3.64.94A5.83,5.83,0,0,0,34.38,50a9,9,0,0,0-.75,3.77H27.17a12.66,12.66,0,0,1,1.55-6.23A11.54,11.54,0,0,1,33.22,43a14.27,14.27,0,0,1,7.11-1.67A15.32,15.32,0,0,1,47,42.68a9.54,9.54,0,0,1,4.17,3.73,11,11,0,0,1,1.43,5.71A11.28,11.28,0,0,1,52,55.73a17.2,17.2,0,0,1-1.67,3.58,31.68,31.68,0,0,1-2.56,3.57c-1,1.18-2.07,2.39-3.24,3.6l-8.45,9.3Z"/>
          <path class="cls-1" d="M86,67v5.14H57.85l-.21-3.88L74.47,41.91h5.17L74,51.5,64.36,67ZM81.11,41.91v39H74.65v-39Z"/>
        </g>
        <path d="M95.34,0H16.66A16.67,16.67,0,0,0,0,16.66V84.34A16.67,16.67,0,0,0,16.66,101H95.34A16.67,16.67,0,0,0,112,84.34V16.66A16.67,16.67,0,0,0,95.34,0ZM16.66,9H95.34A7.67,7.67,0,0,1,103,16.66v5.42H9V16.66A7.67,7.67,0,0,1,16.66,9ZM95.34,92H16.66A7.67,7.67,0,0,1,9,84.34V31.08h94V84.34A7.67,7.67,0,0,1,95.34,92Z"/>
      </g>
    </g>
  </g>
</svg>
