<svg xmlns="http://www.w3.org/2000/svg" viewBox="0 0 112 101">
  <defs>
    <style>
      .cls-1 {
        fill: #fff;
      }
    </style>
  </defs>
  <g id="Слой_2" data-name="Слой 2">
    <g id="Слой_1-2" data-name="Слой 1">
      <g>
        <path class="cls-1" d="M51.5,63.53V60h4.85a18.65,18.65,0,0,1,5.86.8A10.67,10.67,0,0,1,66.16,63a8.79,8.79,0,0,1,2.24,3.2A10.36,10.36,0,0,1,69.11,70a11.56,11.56,0,0,1-1,4.86,10.13,10.13,0,0,1-2.77,3.61,12.42,12.42,0,0,1-4.2,2.22,17.35,17.35,0,0,1-5.21.75,16.34,16.34,0,0,1-4.82-.7A12.83,12.83,0,0,1,47,78.69a9.78,9.78,0,0,1-2.88-3.46,10.39,10.39,0,0,1-1.06-4.81h6.46a5.71,5.71,0,0,0,.82,3.07,5.6,5.6,0,0,0,2.3,2.08,7.49,7.49,0,0,0,3.42.75,8,8,0,0,0,3.51-.73,5,5,0,0,0,2.26-2.14,8,8,0,0,0-.09-7.13,5.22,5.22,0,0,0-2.52-2.1,9.89,9.89,0,0,0-3.86-.69Zm0-5h3.86a8,8,0,0,0,3.74-.77,5.11,5.11,0,0,0,2.21-2.15A6.6,6.6,0,0,0,62,52.44a7.24,7.24,0,0,0-.65-3.18,4.64,4.64,0,0,0-2-2,7.78,7.78,0,0,0-6.45,0,5.4,5.4,0,0,0-2.19,1.93,5.31,5.31,0,0,0-.8,3H43.46a9.62,9.62,0,0,1,1.64-5.52,11.13,11.13,0,0,1,4.46-3.79,14.28,14.28,0,0,1,6.36-1.38,16.31,16.31,0,0,1,6.61,1.25,9.8,9.8,0,0,1,4.41,3.71,11.12,11.12,0,0,1,1.58,6.11,8.07,8.07,0,0,1-.78,3.37,9.63,9.63,0,0,1-2.3,3.13,11.86,11.86,0,0,1-3.81,2.27,14.76,14.76,0,0,1-5.28.87H51.5Z"/>
        <path class="cls-1" d="M95.34,0H16.66A16.67,16.67,0,0,0,0,16.66V84.34A16.67,16.67,0,0,0,16.66,101H95.34A16.67,16.67,0,0,0,112,84.34V16.66A16.67,16.67,0,0,0,95.34,0ZM16.66,9H95.34A7.67,7.67,0,0,1,103,16.66v5.42H9V16.66A7.67,7.67,0,0,1,16.66,9ZM95.34,92H16.66A7.67,7.67,0,0,1,9,84.34V31.08h94V84.34A7.67,7.67,0,0,1,95.34,92Z"/>
      </g>
    </g>
  </g>
</svg>
