<svg xmlns="http://www.w3.org/2000/svg" viewBox="0 0 112 101">
  <g id="Слой_2" data-name="Слой 2">
    <g id="Слой_1-2" data-name="Слой 1">
      <g>
        <g>
          <path d="M54.07,75.78v5.14H27.92V76.5l12.7-13.85a48.68,48.68,0,0,0,3.3-4.08,13.51,13.51,0,0,0,1.7-3.09,8,8,0,0,0,.49-2.69,7.31,7.31,0,0,0-.68-3.26,5.24,5.24,0,0,0-2-2.22,5.84,5.84,0,0,0-3.19-.82,6.61,6.61,0,0,0-3.64.94A5.83,5.83,0,0,0,34.38,50a9,9,0,0,0-.75,3.77H27.17a12.66,12.66,0,0,1,1.55-6.23A11.54,11.54,0,0,1,33.22,43a14.27,14.27,0,0,1,7.11-1.67A15.32,15.32,0,0,1,47,42.68a9.54,9.54,0,0,1,4.17,3.73,11,11,0,0,1,1.43,5.71A11.28,11.28,0,0,1,52,55.73a17.2,17.2,0,0,1-1.67,3.58,31.68,31.68,0,0,1-2.56,3.57c-1,1.18-2.07,2.39-3.24,3.6l-8.45,9.3Z"/>
          <path d="M65.89,62.78l-5.14-1.26,2.11-19.61h21v5.46H68.22l-1.07,9.57a13.14,13.14,0,0,1,2.52-1.06,11.83,11.83,0,0,1,3.67-.52,12.92,12.92,0,0,1,5,.9A10.06,10.06,0,0,1,82,58.86,11.53,11.53,0,0,1,84.33,63a17.51,17.51,0,0,1,.8,5.46,15.73,15.73,0,0,1-.79,5.06A12.15,12.15,0,0,1,82,77.66a10.78,10.78,0,0,1-4,2.8,14.62,14.62,0,0,1-5.67,1,15.45,15.45,0,0,1-4.67-.71,12.24,12.24,0,0,1-4-2.12,10.49,10.49,0,0,1-2.84-3.48,11.63,11.63,0,0,1-1.23-4.78h6.32A8,8,0,0,0,67,73.6a5.44,5.44,0,0,0,2.18,2,7,7,0,0,0,3.17.7,6.4,6.4,0,0,0,2.81-.58,5.25,5.25,0,0,0,2-1.66,7.63,7.63,0,0,0,1.18-2.56,12.75,12.75,0,0,0,.39-3.27,10.73,10.73,0,0,0-.44-3.14,7.18,7.18,0,0,0-1.32-2.46A5.8,5.8,0,0,0,74.71,61a8.89,8.89,0,0,0-6.55.09A11,11,0,0,0,65.89,62.78Z"/>
        </g>
        <path d="M95.34,0H16.66A16.67,16.67,0,0,0,0,16.66V84.34A16.67,16.67,0,0,0,16.66,101H95.34A16.67,16.67,0,0,0,112,84.34V16.66A16.67,16.67,0,0,0,95.34,0ZM16.66,9H95.34A7.67,7.67,0,0,1,103,16.66v5.42H9V16.66A7.67,7.67,0,0,1,16.66,9ZM95.34,92H16.66A7.67,7.67,0,0,1,9,84.34V31.08h94V84.34A7.67,7.67,0,0,1,95.34,92Z"/>
      </g>
    </g>
  </g>
</svg>
