<svg xmlns="http://www.w3.org/2000/svg" viewBox="0 0 112 101">
  <defs>
    <style>
      .cls-1 {
        fill: #fff;
      }
    </style>
  </defs>
  <g id="Слой_2" data-name="Слой 2">
    <g id="Слой_1-2" data-name="Слой 1">
      <g>
        <path class="cls-1" d="M50.7,62.78l-5.15-1.26,2.12-19.61h21v5.46H53L52,56.94a12.61,12.61,0,0,1,2.52-1.06,11.78,11.78,0,0,1,3.67-.52,12.83,12.83,0,0,1,4.94.9,9.9,9.9,0,0,1,3.71,2.6A11.38,11.38,0,0,1,69.13,63a17.21,17.21,0,0,1,.81,5.46,16,16,0,0,1-.79,5.06,12.15,12.15,0,0,1-2.37,4.16,10.86,10.86,0,0,1-4,2.8,14.62,14.62,0,0,1-5.67,1,15.47,15.47,0,0,1-4.68-.71,12.29,12.29,0,0,1-4-2.12,10.49,10.49,0,0,1-2.84-3.48,11.79,11.79,0,0,1-1.24-4.78H50.7a8,8,0,0,0,1.06,3.23,5.44,5.44,0,0,0,2.18,2,6.91,6.91,0,0,0,3.16.7,6.45,6.45,0,0,0,2.82-.58,5.33,5.33,0,0,0,2-1.66,7.61,7.61,0,0,0,1.17-2.56,12.75,12.75,0,0,0,.39-3.27A10.41,10.41,0,0,0,63,65.11a7,7,0,0,0-1.31-2.46A5.76,5.76,0,0,0,59.51,61a7.33,7.33,0,0,0-3-.58,7.42,7.42,0,0,0-3.53.67A11,11,0,0,0,50.7,62.78Z"/>
        <path class="cls-1" d="M95.34,0H16.66A16.67,16.67,0,0,0,0,16.66V84.34A16.67,16.67,0,0,0,16.66,101H95.34A16.67,16.67,0,0,0,112,84.34V16.66A16.67,16.67,0,0,0,95.34,0ZM16.66,9H95.34A7.67,7.67,0,0,1,103,16.66v5.42H9V16.66A7.67,7.67,0,0,1,16.66,9ZM95.34,92H16.66A7.67,7.67,0,0,1,9,84.34V31.08h94V84.34A7.67,7.67,0,0,1,95.34,92Z"/>
      </g>
    </g>
  </g>
</svg>
