<svg xmlns="http://www.w3.org/2000/svg" viewBox="0 0 112 101">
  <g id="Слой_2" data-name="Слой 2">
    <g id="Слой_1-2" data-name="Слой 1">
      <g>
        <g>
          <path d="M54.07,75.78v5.14H27.92V76.5l12.7-13.85a48.68,48.68,0,0,0,3.3-4.08,13.51,13.51,0,0,0,1.7-3.09,8,8,0,0,0,.49-2.69,7.31,7.31,0,0,0-.68-3.26,5.24,5.24,0,0,0-2-2.22,5.84,5.84,0,0,0-3.19-.82,6.61,6.61,0,0,0-3.64.94A5.83,5.83,0,0,0,34.38,50a9,9,0,0,0-.75,3.77H27.17a12.66,12.66,0,0,1,1.55-6.23A11.54,11.54,0,0,1,33.22,43a14.27,14.27,0,0,1,7.11-1.67A15.32,15.32,0,0,1,47,42.68a9.54,9.54,0,0,1,4.17,3.73,11,11,0,0,1,1.43,5.71A11.28,11.28,0,0,1,52,55.73a17.2,17.2,0,0,1-1.67,3.58,31.68,31.68,0,0,1-2.56,3.57c-1,1.18-2.07,2.39-3.24,3.6l-8.45,9.3Z"/>
          <path d="M84.54,58.15v6.37a30,30,0,0,1-.89,7.82,13.9,13.9,0,0,1-2.59,5.24,10.09,10.09,0,0,1-4,2.94,13.93,13.93,0,0,1-5.24.94,15,15,0,0,1-4.28-.59A10.48,10.48,0,0,1,64,79a10.86,10.86,0,0,1-2.69-3.25A17.67,17.67,0,0,1,59.55,71a30.94,30.94,0,0,1-.6-6.46V58.15a28.52,28.52,0,0,1,.91-7.79,13.87,13.87,0,0,1,2.6-5.17,10,10,0,0,1,4-2.91,14.34,14.34,0,0,1,5.24-.91A15,15,0,0,1,76,42a10.22,10.22,0,0,1,3.54,1.8A10.65,10.65,0,0,1,82.25,47,16.56,16.56,0,0,1,84,51.7,30.82,30.82,0,0,1,84.54,58.15Zm-6.46,7.28V57.18a27.86,27.86,0,0,0-.26-4.11A13.28,13.28,0,0,0,77,50a6.62,6.62,0,0,0-1.3-2A4.83,4.83,0,0,0,74,46.85a6.52,6.52,0,0,0-2.23-.36,6.1,6.1,0,0,0-2.68.57,5,5,0,0,0-2,1.84,9.72,9.72,0,0,0-1.22,3.31,25.26,25.26,0,0,0-.41,5v8.25a28.39,28.39,0,0,0,.26,4.16,12.75,12.75,0,0,0,.81,3.07,6.9,6.9,0,0,0,1.3,2.09,4.66,4.66,0,0,0,1.77,1.19,6.25,6.25,0,0,0,2.21.38,6,6,0,0,0,2.7-.59,5.05,5.05,0,0,0,2-1.89,10.3,10.3,0,0,0,1.2-3.39A26.92,26.92,0,0,0,78.08,65.43Z"/>
        </g>
        <path d="M95.34,0H16.66A16.67,16.67,0,0,0,0,16.66V84.34A16.67,16.67,0,0,0,16.66,101H95.34A16.67,16.67,0,0,0,112,84.34V16.66A16.67,16.67,0,0,0,95.34,0ZM16.66,9H95.34A7.67,7.67,0,0,1,103,16.66v5.42H9V16.66A7.67,7.67,0,0,1,16.66,9ZM95.34,92H16.66A7.67,7.67,0,0,1,9,84.34V31.08h94V84.34A7.67,7.67,0,0,1,95.34,92Z"/>
      </g>
    </g>
  </g>
</svg>
