<svg xmlns="http://www.w3.org/2000/svg" viewBox="0 0 112 101">
  <g id="Слой_2" data-name="Слой 2">
    <g id="Слой_1-2" data-name="Слой 1">
      <g>
        <path d="M69.43,70.29a10.17,10.17,0,0,1-6.28,9.9,17.58,17.58,0,0,1-13.12,0,10.47,10.47,0,0,1-4.61-3.77,10.63,10.63,0,0,1-1.69-6.13,10,10,0,0,1,.94-4.39,9.93,9.93,0,0,1,2.66-3.4,12.43,12.43,0,0,1,4.08-2.21,16.14,16.14,0,0,1,5.13-.78,15.49,15.49,0,0,1,6.62,1.37,11.16,11.16,0,0,1,4.59,3.78A9.6,9.6,0,0,1,69.43,70.29Zm-.88-18.12A9,9,0,0,1,67,57.37,10.45,10.45,0,0,1,62.76,61a15.36,15.36,0,0,1-12.37,0,10.51,10.51,0,0,1-4.26-3.58,9,9,0,0,1-1.54-5.2,10.64,10.64,0,0,1,1.54-5.88,9.87,9.87,0,0,1,4.25-3.66,15.83,15.83,0,0,1,12.38,0A9.84,9.84,0,0,1,67,46.29,10.64,10.64,0,0,1,68.55,52.17ZM62.94,70a7,7,0,0,0-.8-3.43,5.65,5.65,0,0,0-2.25-2.27,6.75,6.75,0,0,0-3.35-.81,6.65,6.65,0,0,0-3.35.81A5.56,5.56,0,0,0,51,66.53,7.15,7.15,0,0,0,50.19,70,7,7,0,0,0,51,73.38a5.1,5.1,0,0,0,2.22,2.19,7.29,7.29,0,0,0,3.4.75A7.15,7.15,0,0,0,60,75.57a5.22,5.22,0,0,0,2.2-2.19A7,7,0,0,0,62.94,70Zm-.85-17.58a6.51,6.51,0,0,0-.69-3.06,5.06,5.06,0,0,0-1.91-2.08,5.52,5.52,0,0,0-2.92-.75,5.67,5.67,0,0,0-2.92.72,4.83,4.83,0,0,0-1.91,2,6.88,6.88,0,0,0-.67,3.13,7,7,0,0,0,.67,3.13,5,5,0,0,0,1.92,2.07,5.58,5.58,0,0,0,2.93.75,5.49,5.49,0,0,0,2.92-.75,5,5,0,0,0,1.91-2.07A7,7,0,0,0,62.09,52.38Z"/>
        <path d="M95.34,0H16.66A16.67,16.67,0,0,0,0,16.66V84.34A16.67,16.67,0,0,0,16.66,101H95.34A16.67,16.67,0,0,0,112,84.34V16.66A16.67,16.67,0,0,0,95.34,0ZM16.66,9H95.34A7.67,7.67,0,0,1,103,16.66v5.42H9V16.66A7.67,7.67,0,0,1,16.66,9ZM95.34,92H16.66A7.67,7.67,0,0,1,9,84.34V31.08h94V84.34A7.67,7.67,0,0,1,95.34,92Z"/>
      </g>
    </g>
  </g>
</svg>
