<svg xmlns="http://www.w3.org/2000/svg" viewBox="0 0 112 101">
  <defs>
    <style>
      .cls-1 {
        fill: #fff;
      }
    </style>
  </defs>
  <g id="Слой_2" data-name="Слой 2">
    <g id="Слой_1-2" data-name="Слой 1">
      <g>
        <g>
          <path class="cls-1" d="M44.55,41.77V80.92H38.09V49.44l-9.57,3.24V47.35l15.25-5.58Z"/>
          <path class="cls-1" d="M77.62,41.66h.8v5.28H78A15,15,0,0,0,72,48,11,11,0,0,0,67.89,51a12.39,12.39,0,0,0-2.4,4.39,17.78,17.78,0,0,0-.79,5.32V66.8a15,15,0,0,0,.51,4.12,8.66,8.66,0,0,0,1.44,3,6.18,6.18,0,0,0,2.13,1.81,5.85,5.85,0,0,0,5.22,0A5.88,5.88,0,0,0,76,74a7.43,7.43,0,0,0,1.26-2.55,11.28,11.28,0,0,0,.43-3.21,11.72,11.72,0,0,0-.41-3.13,8.37,8.37,0,0,0-1.22-2.57,5.63,5.63,0,0,0-4.75-2.37,6.78,6.78,0,0,0-3.49.91,7.36,7.36,0,0,0-2.52,2.37,6.2,6.2,0,0,0-1,3.1l-2.46-.81a13.46,13.46,0,0,1,1.11-4.47,10.71,10.71,0,0,1,2.37-3.38,10.17,10.17,0,0,1,3.42-2.13A12,12,0,0,1,73,55.06a10.65,10.65,0,0,1,4.94,1.08A10,10,0,0,1,81.39,59a13.06,13.06,0,0,1,2.06,4.18,17.68,17.68,0,0,1,.68,4.9,15.35,15.35,0,0,1-.86,5.23,12.31,12.31,0,0,1-2.5,4.25,11.45,11.45,0,0,1-4,2.84,13.25,13.25,0,0,1-5.32,1,12.42,12.42,0,0,1-5.59-1.21,12,12,0,0,1-4.15-3.32,14.93,14.93,0,0,1-2.59-4.88,19,19,0,0,1-.88-5.84V63.53a30.6,30.6,0,0,1,1.12-8.4,20.5,20.5,0,0,1,3.47-7,16.23,16.23,0,0,1,6-4.76A20.43,20.43,0,0,1,77.62,41.66Z"/>
        </g>
        <path class="cls-1" d="M95.34,0H16.66A16.67,16.67,0,0,0,0,16.66V84.34A16.67,16.67,0,0,0,16.66,101H95.34A16.67,16.67,0,0,0,112,84.34V16.66A16.67,16.67,0,0,0,95.34,0ZM16.66,9H95.34A7.67,7.67,0,0,1,103,16.66v5.42H9V16.66A7.67,7.67,0,0,1,16.66,9ZM95.34,92H16.66A7.67,7.67,0,0,1,9,84.34V31.08h94V84.34A7.67,7.67,0,0,1,95.34,92Z"/>
      </g>
    </g>
  </g>
</svg>
